<svg width="40" height="40" viewBox="0 0 40 40" fill="none" xmlns="http://www.w3.org/2000/svg">
<path d="M29.1946 27.2222H24.1529C23.1807 23.824 21.4978 20.8564 19.1043 18.3194C16.7108 15.7823 13.8381 13.9351 10.4862 12.7777H29.1946C29.5881 12.7777 29.918 12.9108 30.1842 13.177C30.4504 13.4432 30.5835 13.7731 30.5835 14.1666V25.8333C30.5835 26.2268 30.4504 26.5567 30.1842 26.8229C29.918 27.0891 29.5881 27.2222 29.1946 27.2222ZM33.9168 33.3333H25.0279C25.0279 32.8703 25.0117 32.4074 24.9793 31.9444C24.9469 31.4814 24.8983 31.0185 24.8335 30.5555H33.9168V9.44438H6.139V11.75C5.67602 11.6852 5.21307 11.6365 4.75012 11.6041C4.28715 11.5717 3.82419 11.5555 3.36125 11.5555V9.44438C3.36125 8.68049 3.63323 8.02656 4.17721 7.48258C4.72118 6.93861 5.37511 6.66663 6.139 6.66663H33.9168C34.6807 6.66663 35.3346 6.93861 35.8786 7.48258C36.4226 8.02656 36.6946 8.68049 36.6946 9.44438V30.5555C36.6946 31.3194 36.4226 31.9734 35.8786 32.5173C35.3346 33.0613 34.6807 33.3333 33.9168 33.3333ZM13.0705 33.3333C12.7051 33.3333 12.3853 33.2215 12.1112 32.9978C11.8372 32.7741 11.6659 32.4739 11.5973 32.0972C11.3288 30.2361 10.5441 28.6527 9.24316 27.3472C7.94225 26.0416 6.3705 25.2546 4.52791 24.9861C4.1853 24.9305 3.90521 24.7611 3.68762 24.4777C3.47004 24.1943 3.36125 23.8713 3.36125 23.5086C3.36125 23.1232 3.48161 22.794 3.72233 22.5208C3.96308 22.2477 4.25475 22.1296 4.59733 22.1666C7.18991 22.4444 9.39593 23.5092 11.2154 25.3611C13.0348 27.2129 14.0973 29.4352 14.4029 32.0278C14.4584 32.3942 14.3473 32.7034 14.0695 32.9554C13.7918 33.2073 13.4587 33.3333 13.0705 33.3333ZM19.7501 33.3333C19.3705 33.3333 19.0441 33.2083 18.771 32.9583C18.4978 32.7083 18.3427 32.3935 18.3057 32.0139C17.9723 28.3472 16.5302 25.2222 13.9793 22.6388C11.4284 20.0555 8.32883 18.6018 4.68066 18.2778C4.29178 18.2407 3.97465 18.0828 3.72929 17.804C3.48393 17.5253 3.36125 17.2001 3.36125 16.8284C3.36125 16.4335 3.50708 16.1018 3.79875 15.8333C4.09041 15.5648 4.43532 15.4491 4.83346 15.4861C9.19012 15.8431 12.8973 17.5667 15.9551 20.6567C19.0129 23.7466 20.7223 27.4768 21.0835 31.8472C21.1205 32.2638 21.0059 32.6157 20.7397 32.9028C20.4735 33.1898 20.1436 33.3333 19.7501 33.3333ZM5.57691 33.3333C4.94239 33.3333 4.40522 33.1112 3.96541 32.667C3.52558 32.2229 3.30566 31.6835 3.30566 31.049C3.30566 30.4145 3.52775 29.8773 3.97191 29.4375C4.41611 28.9977 4.95547 28.7778 5.59 28.7778C6.22453 28.7778 6.76169 28.9998 7.2015 29.444C7.6413 29.8882 7.86121 30.4275 7.86121 31.062C7.86121 31.6966 7.63912 32.2338 7.19496 32.6736C6.75079 33.1134 6.21144 33.3333 5.57691 33.3333Z" fill="#111111"/>
</svg>
