<svg width="86" height="13" viewBox="0 0 86 13" fill="none" xmlns="http://www.w3.org/2000/svg">
<path d="M6.905 9.15C6.185 9.15 5.625 8.93 5.225 8.49C4.825 8.05 4.625 7.44 4.625 6.66C4.625 5.86 4.83 5.245 5.24 4.815C5.66 4.375 6.235 4.155 6.965 4.155C7.205 4.155 7.435 4.18 7.655 4.23C7.885 4.27 8.11 4.34 8.33 4.44L8.075 5.19C7.885 5.11 7.695 5.05 7.505 5.01C7.325 4.97 7.14 4.95 6.95 4.95C6.51 4.95 6.175 5.095 5.945 5.385C5.725 5.665 5.615 6.09 5.615 6.66C5.615 7.2 5.725 7.62 5.945 7.92C6.165 8.21 6.485 8.355 6.905 8.355C7.105 8.355 7.315 8.33 7.535 8.28C7.765 8.22 8.005 8.14 8.255 8.04V8.85C8.015 8.95 7.785 9.025 7.565 9.075C7.345 9.125 7.125 9.15 6.905 9.15ZM6.5 12.825C5.65 12.825 4.85 12.665 4.1 12.345C3.35 12.025 2.69 11.585 2.12 11.025C1.56 10.455 1.12 9.795 0.8 9.045C0.48 8.295 0.32 7.495 0.32 6.645C0.32 5.785 0.48 4.985 0.8 4.245C1.12 3.495 1.56 2.84 2.12 2.28C2.69 1.71 3.35 1.265 4.1 0.944999C4.85 0.624999 5.65 0.464999 6.5 0.464999C7.36 0.464999 8.16 0.624999 8.9 0.944999C9.65 1.265 10.305 1.71 10.865 2.28C11.435 2.84 11.88 3.495 12.2 4.245C12.52 4.985 12.68 5.785 12.68 6.645C12.68 7.495 12.52 8.295 12.2 9.045C11.88 9.795 11.435 10.455 10.865 11.025C10.305 11.585 9.65 12.025 8.9 12.345C8.16 12.665 7.36 12.825 6.5 12.825ZM6.5 11.985C7.24 11.985 7.93 11.85 8.57 11.58C9.22 11.3 9.79 10.915 10.28 10.425C10.77 9.935 11.15 9.37 11.42 8.73C11.7 8.08 11.84 7.385 11.84 6.645C11.84 5.905 11.7 5.215 11.42 4.575C11.15 3.925 10.77 3.355 10.28 2.865C9.79 2.375 9.22 1.995 8.57 1.725C7.93 1.445 7.24 1.305 6.5 1.305C5.76 1.305 5.065 1.445 4.415 1.725C3.775 1.995 3.21 2.375 2.72 2.865C2.23 3.355 1.845 3.925 1.565 4.575C1.295 5.215 1.16 5.905 1.16 6.645C1.16 7.385 1.295 8.08 1.565 8.73C1.845 9.37 2.23 9.935 2.72 10.425C3.21 10.915 3.775 11.3 4.415 11.58C5.065 11.85 5.76 11.985 6.5 11.985ZM18.6582 12.1465C16.5488 12.1465 15.0327 11.0186 14.9668 9.33398H16.2998C16.373 10.3447 17.3765 10.9746 18.6436 10.9746C20.0425 10.9746 21.0532 10.2202 21.0605 9.11426C21.0532 7.95703 20.1304 7.14404 18.4824 7.13672H17.6182V5.97949H18.4824C19.7715 5.97949 20.6724 5.25439 20.665 4.16309C20.6724 3.10107 19.896 2.39795 18.6875 2.39062C17.5522 2.39795 16.5195 3.02051 16.4609 4.06055H15.1865C15.2524 2.37598 16.8198 1.24805 18.7021 1.24805C20.7236 1.24805 21.9541 2.57373 21.9395 4.08984C21.9541 5.29834 21.251 6.17725 20.1377 6.49219V6.56543C21.522 6.77783 22.3569 7.7666 22.3496 9.11426C22.3569 10.8574 20.7749 12.1465 18.6582 12.1465ZM30.8164 4.0459L27.8721 12H26.5684L23.6387 4.0459H25.0156L27.1836 10.3594H27.2715L29.4395 4.0459H30.8164ZM32.208 12V4.0459H33.4678V12H32.208ZM31.959 1.89258C31.9517 1.42383 32.3545 1.05029 32.8379 1.05762C33.3213 1.05029 33.7241 1.42383 33.7314 1.89258C33.7241 2.354 33.3213 2.72754 32.8379 2.72754C32.3545 2.72754 31.9517 2.354 31.959 1.89258ZM38.8145 12.1611C36.5146 12.1685 35.0938 10.5278 35.0938 8.08887C35.0938 5.64258 36.5366 3.94336 38.6973 3.94336C40.3672 3.94336 42.1323 4.96875 42.125 7.91309V8.44043H36.3535C36.4194 10.125 37.4009 11.0479 38.8145 11.0479C39.7666 11.0479 40.3672 10.6304 40.6602 10.1396H42.0078C41.6343 11.3481 40.4551 12.1685 38.8145 12.1611ZM36.3608 7.37109H40.8506C40.8433 6.04541 40.0083 5.05664 38.6973 5.05664C37.3203 5.05664 36.4487 6.14062 36.3608 7.37109ZM45.5527 12L43.1357 4.0459H44.4688L46.168 10.1104H46.2412L47.9258 4.0459H49.2734L50.9287 10.0811H51.0166L52.7158 4.0459H54.0342L51.6172 12H50.3721L48.6436 5.93555H48.5264L46.8125 12H45.5527ZM55.2354 12.0879C54.7227 12.0806 54.2832 11.6558 54.2979 11.1357C54.2832 10.623 54.7227 10.1982 55.2354 10.1982C55.7554 10.1982 56.1802 10.623 56.1729 11.1357C56.1802 11.6558 55.7554 12.0806 55.2354 12.0879ZM61.4023 12.1611C59.1465 12.1685 57.7695 10.4473 57.7695 8.05957C57.7695 5.64258 59.2124 3.94336 61.373 3.94336C63.0649 3.94336 64.3394 4.94678 64.5371 6.44824H63.2773C63.0942 5.72314 62.4644 5.05664 61.4023 5.05664C59.9814 5.05664 59.0366 6.22852 59.0293 8.01562C59.0366 9.854 59.9595 11.0332 61.4023 11.0332C62.3398 11.0332 63.0576 10.5278 63.2773 9.65625H64.5371C64.3394 11.0771 63.1675 12.1685 61.4023 12.1611ZM69.3418 12.1611C67.1738 12.1685 65.709 10.5278 65.709 8.05957C65.709 5.57666 67.1738 3.94336 69.3418 3.94336C71.5024 3.94336 72.9526 5.57666 72.9453 8.05957C72.9526 10.5278 71.5024 12.1685 69.3418 12.1611ZM66.9688 8.05957C66.9761 9.64893 67.7231 11.0479 69.3418 11.0479C70.9458 11.0479 71.6855 9.64893 71.6855 8.05957C71.6855 6.47754 70.9458 5.05664 69.3418 5.05664C67.7231 5.05664 66.9761 6.47754 66.9688 8.05957ZM74.6006 12V4.0459H75.8164V5.29102H75.9189C76.2485 4.44141 77.0176 3.94336 78.0576 3.94336C79.0977 3.94336 79.8081 4.44141 80.1816 5.29102H80.2695C80.6724 4.4707 81.5146 3.94336 82.6572 3.94336C84.0708 3.94336 85.0889 4.80762 85.0889 6.68262V12H83.8291V6.69727C83.8218 5.52539 83.0894 5.07129 82.2178 5.07129C81.1118 5.07129 80.4819 5.81836 80.4746 6.8291V12H79.2002V6.56543C79.2075 5.67188 78.563 5.07129 77.6475 5.07129C76.6953 5.07129 75.8604 5.87695 75.8604 7.03418V12H74.6006Z" fill="#505050"/>
</svg>
