<svg width="50" height="50" viewBox="0 0 50 50" fill="none" xmlns="http://www.w3.org/2000/svg">
<path d="M36.4931 34.028H30.191C28.9757 29.7803 26.8721 26.0708 23.8802 22.8994C20.8883 19.7282 17.2974 17.4191 13.1076 15.9724H36.4931C36.985 15.9724 37.3973 16.1387 37.73 16.4715C38.0628 16.8043 38.2292 17.2166 38.2292 17.7084V32.2919C38.2292 32.7838 38.0628 33.1961 37.73 33.5288C37.3973 33.8616 36.985 34.028 36.4931 34.028ZM42.3958 41.6668H31.2847C31.2847 41.0881 31.2645 40.5094 31.224 39.9307C31.1834 39.352 31.1227 38.7733 31.0417 38.1946H42.3958V11.8057H7.67359V14.6877C7.09488 14.6067 6.51618 14.5459 5.9375 14.5054C5.35879 14.4649 4.78009 14.4446 4.20141 14.4446V11.8057C4.20141 10.8508 4.54139 10.0334 5.22135 9.35344C5.90132 8.67348 6.71873 8.3335 7.67359 8.3335H42.3958C43.3507 8.3335 44.1681 8.67348 44.8481 9.35344C45.5281 10.0334 45.8681 10.8508 45.8681 11.8057V38.1946C45.8681 39.1495 45.5281 39.9669 44.8481 40.6469C44.1681 41.3268 43.3507 41.6668 42.3958 41.6668ZM16.338 41.6668C15.8812 41.6668 15.4815 41.527 15.1389 41.2475C14.7963 40.9678 14.5822 40.5926 14.4965 40.1217C14.1609 37.7953 13.18 35.8161 11.5538 34.1842C9.92766 32.5522 7.96297 31.5684 5.65974 31.2328C5.23148 31.1634 4.88135 30.9515 4.60938 30.5973C4.3374 30.2431 4.20141 29.8393 4.20141 29.3859C4.20141 28.9042 4.35186 28.4927 4.65276 28.1512C4.9537 27.8098 5.31828 27.6622 5.74651 27.7085C8.98724 28.0557 11.7448 29.3867 14.0191 31.7016C16.2934 34.0164 17.6215 36.7942 18.0034 40.0349C18.0729 40.493 17.934 40.8795 17.5868 41.1944C17.2395 41.5094 16.8233 41.6668 16.338 41.6668ZM24.6875 41.6668C24.213 41.6668 23.805 41.5106 23.4635 41.1981C23.1221 40.8856 22.9282 40.4921 22.8819 40.0176C22.4653 35.4342 20.6626 31.5279 17.474 28.2988C14.2853 25.0696 10.4109 23.2525 5.85068 22.8474C5.36457 22.8011 4.96816 22.6037 4.66146 22.2553C4.35476 21.9068 4.20141 21.5003 4.20141 21.0357C4.20141 20.5421 4.3837 20.1275 4.74828 19.7918C5.11286 19.4562 5.54399 19.3115 6.04167 19.3578C11.4875 19.8041 16.1215 21.9585 19.9438 25.821C23.766 29.6835 25.9028 34.3462 26.3542 39.8092C26.4005 40.33 26.2572 40.7698 25.9245 41.1287C25.5917 41.4874 25.1794 41.6668 24.6875 41.6668ZM6.97099 41.6668C6.17783 41.6668 5.50637 41.3892 4.95661 40.834C4.40682 40.2788 4.13193 39.6046 4.13193 38.8115C4.13193 38.0183 4.40953 37.3468 4.96474 36.797C5.51998 36.2473 6.19418 35.9724 6.98734 35.9724C7.7805 35.9724 8.45196 36.25 9.00172 36.8052C9.55148 37.3604 9.82635 38.0346 9.82635 38.8278C9.82635 39.6209 9.54875 40.2924 8.99354 40.8422C8.43833 41.392 7.76415 41.6668 6.97099 41.6668Z" fill="#111111"/>
</svg>
