<svg width="69" height="25" viewBox="0 0 69 25" fill="none" xmlns="http://www.w3.org/2000/svg">
<path d="M22.8074 20.0469V22.5625H0.221485V20.0469H9.95586V16.0273H2.90117V7.93359H17.1199V4.87109H2.84649V2.41016H20.1277V10.3398H5.93633V13.5391H20.702V16.0273H12.9637V20.0469H22.8074ZM43.3809 3.12109V5.91016C43.3809 9.21875 43.3809 12.623 42.4785 17.832L39.3887 17.5586C40.3457 12.7051 40.3457 9.12305 40.3457 5.91016V5.58203H26.0996V3.12109H43.3809ZM23.7207 22.043V19.5547H46.252V22.043H23.7207ZM67.8098 0.742188V18.5977H64.7473V0.742188H67.8098ZM47.6574 8.53516C47.6574 4.93945 50.5695 2.36914 54.3293 2.35547C58.0891 2.36914 60.9875 4.93945 60.9738 8.53516C60.9875 12.1855 58.0891 14.7422 54.3293 14.7422C50.5695 14.7422 47.6574 12.1855 47.6574 8.53516ZM50.6379 8.53516C50.6242 10.7227 52.2102 12.0898 54.3293 12.0898C56.3937 12.0898 57.9934 10.7227 57.9934 8.53516C57.9934 6.40234 56.3937 5.00781 54.3293 5.00781C52.2102 5.00781 50.6242 6.40234 50.6379 8.53516ZM51.4582 24.9414V16.793H54.5207V22.4805H68.4934V24.9414H51.4582Z" fill="#111111"/>
</svg>
