<svg width="283" height="44" viewBox="0 0 283 44" fill="none" xmlns="http://www.w3.org/2000/svg">
<g filter="url(#filter0_d_46_459)">
<mask id="path-1-outside-1_46_459" maskUnits="userSpaceOnUse" x="3" y="-1" width="277" height="38" fill="black">
<rect fill="white" x="3" y="-1" width="277" height="38"/>
<path d="M4.00977 2.47656H11.1973L20.8555 26.1055H21.2598L30.918 2.47656H38.1055V35H32.4902V12.6289H32.1758L23.1465 34.9102H18.9688L9.93945 12.5391H9.66992V35H4.00977V2.47656ZM42.7324 28.127C42.7324 22.6465 47.292 21.0518 51.8066 20.7598C53.5137 20.625 56.9951 20.4678 58.0732 20.4229L58.0508 18.4688C58.0508 16.043 56.501 14.6504 53.6484 14.6504C51.0879 14.6504 49.5156 15.8184 49.0664 17.5703H43.541C43.9453 13.415 47.6738 10.293 53.7832 10.293C58.4102 10.293 63.7559 12.2021 63.7559 18.6934V35H58.2754V31.6309H58.0957C57.0176 33.6973 54.749 35.4941 50.9082 35.4941C46.2588 35.4941 42.7324 32.9561 42.7324 28.127ZM48.2578 28.082C48.2578 30.1934 49.9873 31.2715 52.3906 31.2715C55.8721 31.2715 58.0957 28.9805 58.0957 26.2402L58.0732 24.2412C57.04 24.2861 53.8506 24.4883 52.7051 24.5781C49.9873 24.8027 48.2578 25.9482 48.2578 28.082ZM79.793 35.4941C72.5156 35.4941 68.1133 30.2832 68.1133 22.916C68.1133 15.4365 72.6504 10.293 79.793 10.293C85.7002 10.293 89.8555 13.752 90.2598 19.0078H84.7793C84.3301 16.6719 82.623 14.8975 79.8379 14.875C76.2891 14.8975 73.9082 17.8623 73.9082 22.7812C73.9082 27.8125 76.2441 30.7998 79.8379 30.8223C82.376 30.7998 84.2627 29.3174 84.7793 26.6895H90.2598C89.833 31.833 85.9248 35.4941 79.793 35.4941ZM100.322 20.7148V35H94.5723V2.47656H100.188V14.7402H100.502C101.603 11.9775 103.983 10.293 107.734 10.293C112.788 10.293 116.135 13.5723 116.135 19.457V35H110.43V20.3555C110.407 17.0312 108.633 15.1221 105.623 15.1445C102.523 15.1221 100.322 17.166 100.322 20.7148ZM121.57 35V10.6074H127.32V35H121.57ZM121.166 4.00391C121.166 2.29688 122.671 0.904297 124.49 0.904297C126.31 0.904297 127.814 2.29688 127.814 4.00391C127.814 5.7334 126.31 7.12598 124.49 7.14844C122.671 7.12598 121.166 5.7334 121.166 4.00391ZM138.551 20.7148V35H132.801V10.6074H138.281V14.7402H138.596C139.696 12.0225 142.189 10.293 145.828 10.293C150.882 10.293 154.206 13.6172 154.184 19.457V35H148.479V20.3555C148.479 17.0762 146.704 15.1221 143.717 15.1445C140.685 15.1221 138.551 17.166 138.551 20.7148ZM170.49 35.4941C163.146 35.4941 158.631 30.5977 158.631 22.9609C158.631 15.4141 163.213 10.293 170.176 10.293C176.15 10.293 181.316 14.0439 181.316 22.6016V24.3984H164.291C164.381 28.5537 166.829 31.0244 170.535 31.002C173.051 31.0244 174.735 29.9463 175.477 28.4863H181.092C180.059 32.709 176.15 35.4941 170.49 35.4941ZM164.313 20.4902H175.836C175.813 17.166 173.567 14.7402 170.266 14.7402C166.829 14.7402 164.516 17.3906 164.313 20.4902ZM208.449 35.4492C201.509 35.4492 196.545 31.6758 196.41 26.1953H202.295C202.452 28.8008 205.058 30.5303 208.449 30.5078C212.021 30.5303 214.604 28.5537 214.604 25.6562C214.604 22.7363 212.088 20.6475 207.865 20.625H204.945V16.1328H207.865C211.324 16.1328 213.728 14.2012 213.705 11.3711C213.728 8.63086 211.661 6.78906 208.494 6.78906C205.439 6.78906 202.812 8.49609 202.699 11.2363H197.084C197.219 5.77832 202.183 2.02734 208.539 2.02734C215.143 2.02734 219.41 6.07031 219.365 11.0566C219.41 14.6953 216.984 17.3232 213.436 18.0645V18.334C218.018 18.9404 220.623 21.8828 220.578 25.9707C220.623 31.4736 215.479 35.4492 208.449 35.4492ZM237.873 35.4492C231.517 35.4043 225.183 31.6309 225.205 19.6367C225.205 8.51855 230.259 2.02734 238.232 2.02734C244.499 2.02734 248.812 5.95801 249.553 11.2363H243.758C243.174 8.74316 241.197 7.08105 238.232 7.10352C233.516 7.08105 230.888 11.2588 230.865 18.1094H231.18C232.842 15.3018 235.964 13.6396 239.535 13.6621C245.375 13.6396 249.89 18.0645 249.867 24.2188C249.89 30.6875 245.061 35.4941 237.873 35.4492ZM231.494 24.3984C231.539 27.79 234.189 30.71 237.873 30.7324C241.489 30.71 244.185 27.9248 244.207 24.3535C244.185 20.8945 241.579 18.1094 237.963 18.1094C234.302 18.1094 231.539 21.0068 231.494 24.3984ZM266.354 35.4492C259.862 35.4492 255.078 31.5635 254.898 26.1953H260.604C260.783 28.8232 263.276 30.71 266.354 30.7324C269.992 30.71 272.62 28.082 272.598 24.4883C272.62 20.7598 269.925 18.1318 266.174 18.1094C263.636 18.0869 261.794 18.9854 260.783 20.8945H255.348L257.324 2.47656H276.551V7.37305H262.131L261.143 15.998H261.457C262.715 14.583 265.073 13.5498 267.746 13.5273C273.788 13.5498 278.28 18.042 278.258 24.3086C278.28 30.7998 273.384 35.4492 266.354 35.4492Z"/>
</mask>
<path d="M4.00977 2.47656H11.1973L20.8555 26.1055H21.2598L30.918 2.47656H38.1055V35H32.4902V12.6289H32.1758L23.1465 34.9102H18.9688L9.93945 12.5391H9.66992V35H4.00977V2.47656ZM42.7324 28.127C42.7324 22.6465 47.292 21.0518 51.8066 20.7598C53.5137 20.625 56.9951 20.4678 58.0732 20.4229L58.0508 18.4688C58.0508 16.043 56.501 14.6504 53.6484 14.6504C51.0879 14.6504 49.5156 15.8184 49.0664 17.5703H43.541C43.9453 13.415 47.6738 10.293 53.7832 10.293C58.4102 10.293 63.7559 12.2021 63.7559 18.6934V35H58.2754V31.6309H58.0957C57.0176 33.6973 54.749 35.4941 50.9082 35.4941C46.2588 35.4941 42.7324 32.9561 42.7324 28.127ZM48.2578 28.082C48.2578 30.1934 49.9873 31.2715 52.3906 31.2715C55.8721 31.2715 58.0957 28.9805 58.0957 26.2402L58.0732 24.2412C57.04 24.2861 53.8506 24.4883 52.7051 24.5781C49.9873 24.8027 48.2578 25.9482 48.2578 28.082ZM79.793 35.4941C72.5156 35.4941 68.1133 30.2832 68.1133 22.916C68.1133 15.4365 72.6504 10.293 79.793 10.293C85.7002 10.293 89.8555 13.752 90.2598 19.0078H84.7793C84.3301 16.6719 82.623 14.8975 79.8379 14.875C76.2891 14.8975 73.9082 17.8623 73.9082 22.7812C73.9082 27.8125 76.2441 30.7998 79.8379 30.8223C82.376 30.7998 84.2627 29.3174 84.7793 26.6895H90.2598C89.833 31.833 85.9248 35.4941 79.793 35.4941ZM100.322 20.7148V35H94.5723V2.47656H100.188V14.7402H100.502C101.603 11.9775 103.983 10.293 107.734 10.293C112.788 10.293 116.135 13.5723 116.135 19.457V35H110.43V20.3555C110.407 17.0312 108.633 15.1221 105.623 15.1445C102.523 15.1221 100.322 17.166 100.322 20.7148ZM121.57 35V10.6074H127.32V35H121.57ZM121.166 4.00391C121.166 2.29688 122.671 0.904297 124.49 0.904297C126.31 0.904297 127.814 2.29688 127.814 4.00391C127.814 5.7334 126.31 7.12598 124.49 7.14844C122.671 7.12598 121.166 5.7334 121.166 4.00391ZM138.551 20.7148V35H132.801V10.6074H138.281V14.7402H138.596C139.696 12.0225 142.189 10.293 145.828 10.293C150.882 10.293 154.206 13.6172 154.184 19.457V35H148.479V20.3555C148.479 17.0762 146.704 15.1221 143.717 15.1445C140.685 15.1221 138.551 17.166 138.551 20.7148ZM170.49 35.4941C163.146 35.4941 158.631 30.5977 158.631 22.9609C158.631 15.4141 163.213 10.293 170.176 10.293C176.15 10.293 181.316 14.0439 181.316 22.6016V24.3984H164.291C164.381 28.5537 166.829 31.0244 170.535 31.002C173.051 31.0244 174.735 29.9463 175.477 28.4863H181.092C180.059 32.709 176.15 35.4941 170.49 35.4941ZM164.313 20.4902H175.836C175.813 17.166 173.567 14.7402 170.266 14.7402C166.829 14.7402 164.516 17.3906 164.313 20.4902ZM208.449 35.4492C201.509 35.4492 196.545 31.6758 196.41 26.1953H202.295C202.452 28.8008 205.058 30.5303 208.449 30.5078C212.021 30.5303 214.604 28.5537 214.604 25.6562C214.604 22.7363 212.088 20.6475 207.865 20.625H204.945V16.1328H207.865C211.324 16.1328 213.728 14.2012 213.705 11.3711C213.728 8.63086 211.661 6.78906 208.494 6.78906C205.439 6.78906 202.812 8.49609 202.699 11.2363H197.084C197.219 5.77832 202.183 2.02734 208.539 2.02734C215.143 2.02734 219.41 6.07031 219.365 11.0566C219.41 14.6953 216.984 17.3232 213.436 18.0645V18.334C218.018 18.9404 220.623 21.8828 220.578 25.9707C220.623 31.4736 215.479 35.4492 208.449 35.4492ZM237.873 35.4492C231.517 35.4043 225.183 31.6309 225.205 19.6367C225.205 8.51855 230.259 2.02734 238.232 2.02734C244.499 2.02734 248.812 5.95801 249.553 11.2363H243.758C243.174 8.74316 241.197 7.08105 238.232 7.10352C233.516 7.08105 230.888 11.2588 230.865 18.1094H231.18C232.842 15.3018 235.964 13.6396 239.535 13.6621C245.375 13.6396 249.89 18.0645 249.867 24.2188C249.89 30.6875 245.061 35.4941 237.873 35.4492ZM231.494 24.3984C231.539 27.79 234.189 30.71 237.873 30.7324C241.489 30.71 244.185 27.9248 244.207 24.3535C244.185 20.8945 241.579 18.1094 237.963 18.1094C234.302 18.1094 231.539 21.0068 231.494 24.3984ZM266.354 35.4492C259.862 35.4492 255.078 31.5635 254.898 26.1953H260.604C260.783 28.8232 263.276 30.71 266.354 30.7324C269.992 30.71 272.62 28.082 272.598 24.4883C272.62 20.7598 269.925 18.1318 266.174 18.1094C263.636 18.0869 261.794 18.9854 260.783 20.8945H255.348L257.324 2.47656H276.551V7.37305H262.131L261.143 15.998H261.457C262.715 14.583 265.073 13.5498 267.746 13.5273C273.788 13.5498 278.28 18.042 278.258 24.3086C278.28 30.7998 273.384 35.4492 266.354 35.4492Z" fill="#111111"/>
<path d="M4.00977 2.47656V1.47656H3.00977V2.47656H4.00977ZM11.1973 2.47656L12.1229 2.0982L11.8688 1.47656H11.1973V2.47656ZM20.8555 26.1055L19.9298 26.4838L20.1839 27.1055H20.8555V26.1055ZM21.2598 26.1055V27.1055H21.9313L22.1854 26.4838L21.2598 26.1055ZM30.918 2.47656V1.47656H30.2464L29.9923 2.0982L30.918 2.47656ZM38.1055 2.47656H39.1055V1.47656H38.1055V2.47656ZM38.1055 35V36H39.1055V35H38.1055ZM32.4902 35H31.4902V36H32.4902V35ZM32.4902 12.6289H33.4902V11.6289H32.4902V12.6289ZM32.1758 12.6289V11.6289H31.502L31.249 12.2533L32.1758 12.6289ZM23.1465 34.9102V35.9102H23.8202L24.0733 35.2857L23.1465 34.9102ZM18.9688 34.9102L18.0414 35.2844L18.294 35.9102H18.9688V34.9102ZM9.93945 12.5391L10.8668 12.1648L10.6142 11.5391H9.93945V12.5391ZM9.66992 12.5391V11.5391H8.66992V12.5391H9.66992ZM9.66992 35V36H10.6699V35H9.66992ZM4.00977 35H3.00977V36H4.00977V35ZM4.00977 3.47656H11.1973V1.47656H4.00977V3.47656ZM10.2716 2.85492L19.9298 26.4838L21.7811 25.7271L12.1229 2.0982L10.2716 2.85492ZM20.8555 27.1055H21.2598V25.1055H20.8555V27.1055ZM22.1854 26.4838L31.8436 2.85492L29.9923 2.0982L20.3341 25.7271L22.1854 26.4838ZM30.918 3.47656H38.1055V1.47656H30.918V3.47656ZM37.1055 2.47656V35H39.1055V2.47656H37.1055ZM38.1055 34H32.4902V36H38.1055V34ZM33.4902 35V12.6289H31.4902V35H33.4902ZM32.4902 11.6289H32.1758V13.6289H32.4902V11.6289ZM31.249 12.2533L22.2197 34.5346L24.0733 35.2857L33.1026 13.0045L31.249 12.2533ZM23.1465 33.9102H18.9688V35.9102H23.1465V33.9102ZM19.8961 34.5359L10.8668 12.1648L9.01214 12.9133L18.0414 35.2844L19.8961 34.5359ZM9.93945 11.5391H9.66992V13.5391H9.93945V11.5391ZM8.66992 12.5391V35H10.6699V12.5391H8.66992ZM9.66992 34H4.00977V36H9.66992V34ZM5.00977 35V2.47656H3.00977V35H5.00977ZM51.8066 20.7598L51.8712 21.7577L51.8783 21.7572L51.8853 21.7567L51.8066 20.7598ZM58.0732 20.4229L58.1149 21.422L59.0843 21.3816L59.0732 20.4114L58.0732 20.4229ZM58.0508 18.4688L57.0507 18.4688L57.0508 18.4802L58.0508 18.4688ZM49.0664 17.5703V18.5703H49.8423L50.0351 17.8187L49.0664 17.5703ZM43.541 17.5703L42.5457 17.4735L42.439 18.5703H43.541V17.5703ZM63.7559 35V36H64.7559V35H63.7559ZM58.2754 35H57.2754V36H58.2754V35ZM58.2754 31.6309H59.2754V30.6309H58.2754V31.6309ZM58.0957 31.6309V30.6309H57.4895L57.2091 31.1683L58.0957 31.6309ZM58.0957 26.2402L59.0958 26.2402L59.0956 26.229L58.0957 26.2402ZM58.0732 24.2412L59.0732 24.23L59.0616 23.1973L58.0298 23.2422L58.0732 24.2412ZM52.7051 24.5781L52.6269 23.5812L52.6227 23.5815L52.7051 24.5781ZM43.7324 28.127C43.7324 25.7224 44.7038 24.2681 46.1258 23.3333C47.6164 22.3535 49.68 21.8994 51.8712 21.7577L51.7421 19.7619C49.4186 19.9121 46.9451 20.4014 45.0273 21.662C43.0409 22.9678 41.7324 25.0511 41.7324 28.127H43.7324ZM51.8853 21.7567C53.5706 21.6236 57.0331 21.4671 58.1149 21.422L58.0316 19.4237C56.9571 19.4685 53.4568 19.6264 51.7279 19.7629L51.8853 21.7567ZM59.0732 20.4114L59.0507 18.4573L57.0508 18.4802L57.0733 20.4343L59.0732 20.4114ZM59.0508 18.4688C59.0508 17.0338 58.5842 15.7784 57.578 14.8975C56.5921 14.0343 55.224 13.6504 53.6484 13.6504V15.6504C54.9255 15.6504 55.7585 15.9627 56.2606 16.4023C56.7425 16.8242 57.0508 17.4779 57.0508 18.4688H59.0508ZM53.6484 13.6504C52.22 13.6504 50.982 13.9763 50.0124 14.6204C49.0321 15.2715 48.3823 16.2123 48.0977 17.3219L50.0351 17.8187C50.1998 17.1763 50.5607 16.6572 51.119 16.2864C51.6879 15.9084 52.5163 15.6504 53.6484 15.6504V13.6504ZM49.0664 16.5703H43.541V18.5703H49.0664V16.5703ZM44.5363 17.6672C44.8748 14.1885 48.0049 11.293 53.7832 11.293V9.29297C47.3428 9.29297 43.0158 12.6416 42.5457 17.4735L44.5363 17.6672ZM53.7832 11.293C55.9852 11.293 58.2566 11.7514 59.9463 12.8886C61.578 13.9868 62.7559 15.7721 62.7559 18.6934H64.7559C64.7559 15.1234 63.2608 12.7085 61.063 11.2294C58.9231 9.78914 56.2081 9.29297 53.7832 9.29297V11.293ZM62.7559 18.6934V35H64.7559V18.6934H62.7559ZM63.7559 34H58.2754V36H63.7559V34ZM59.2754 35V31.6309H57.2754V35H59.2754ZM58.2754 30.6309H58.0957V32.6309H58.2754V30.6309ZM57.2091 31.1683C56.3073 32.8967 54.3852 34.4941 50.9082 34.4941V36.4941C55.1128 36.4941 57.7278 34.4978 58.9823 32.0934L57.2091 31.1683ZM50.9082 34.4941C48.7555 34.4941 46.9612 33.9064 45.7229 32.8582C44.5064 31.8285 43.7324 30.2773 43.7324 28.127H41.7324C41.7324 30.8057 42.7216 32.9381 44.4307 34.3847C46.1179 35.8129 48.4115 36.4941 50.9082 36.4941V34.4941ZM47.2578 28.082C47.2578 29.4489 47.8362 30.5503 48.8344 31.277C49.7931 31.9749 51.0573 32.2715 52.3906 32.2715V30.2715C51.3206 30.2715 50.5184 30.0291 50.0115 29.66C49.5441 29.3198 49.2578 28.8265 49.2578 28.082H47.2578ZM52.3906 32.2715C56.3479 32.2715 59.0957 29.6062 59.0957 26.2402H57.0957C57.0957 28.3548 55.3962 30.2715 52.3906 30.2715V32.2715ZM59.0956 26.229L59.0732 24.23L57.0733 24.2524L57.0958 26.2515L59.0956 26.229ZM58.0298 23.2422C56.9824 23.2877 53.7811 23.4907 52.6269 23.5812L52.7833 25.5751C53.9201 25.4859 57.0976 25.2846 58.1167 25.2403L58.0298 23.2422ZM52.6227 23.5815C51.1626 23.7022 49.841 24.0774 48.8609 24.8152C47.8368 25.586 47.2578 26.7022 47.2578 28.082H49.2578C49.2578 27.328 49.5436 26.8046 50.0637 26.4131C50.6277 25.9885 51.5298 25.6787 52.7874 25.5747L52.6227 23.5815ZM90.2598 19.0078V20.0078H91.3396L91.2568 18.9311L90.2598 19.0078ZM84.7793 19.0078L83.7973 19.1967L83.9533 20.0078H84.7793V19.0078ZM79.8379 14.875L79.846 13.875L79.8388 13.875L79.8316 13.875L79.8379 14.875ZM79.8379 30.8223L79.8316 31.8222L79.8392 31.8223L79.8467 31.8222L79.8379 30.8223ZM84.7793 26.6895V25.6895H83.9567L83.7981 26.4966L84.7793 26.6895ZM90.2598 26.6895L91.2563 26.7721L91.3462 25.6895H90.2598V26.6895ZM79.793 34.4941C76.4072 34.4941 73.7675 33.29 71.9659 31.2972C70.1539 29.2928 69.1133 26.4041 69.1133 22.916H67.1133C67.1133 26.7951 68.2738 30.1955 70.4823 32.6384C72.7013 35.0929 75.9014 36.4941 79.793 36.4941V34.4941ZM69.1133 22.916C69.1133 19.3762 70.185 16.4769 72.0132 14.4738C73.8329 12.4803 76.4749 11.293 79.793 11.293V9.29297C75.9685 9.29297 72.7706 10.6774 70.5361 13.1255C68.3102 15.5642 67.1133 18.9763 67.1133 22.916H69.1133ZM79.793 11.293C82.5528 11.293 84.8306 12.0996 86.4501 13.448C88.0617 14.7897 89.0804 16.7147 89.2627 19.0845L91.2568 18.9311C91.0348 16.045 89.7737 13.6126 87.7298 11.9109C85.6939 10.2159 82.9404 9.29297 79.793 9.29297V11.293ZM90.2598 18.0078H84.7793V20.0078H90.2598V18.0078ZM85.7613 18.819C85.5015 17.4679 84.8679 16.2318 83.8488 15.3263C82.8221 14.4141 81.4603 13.8881 79.846 13.875L79.8298 15.875C81.0007 15.8844 81.8849 16.2568 82.5204 16.8214C83.1634 17.3927 83.6079 18.2118 83.7973 19.1967L85.7613 18.819ZM79.8316 13.875C77.7509 13.8882 75.9763 14.7776 74.7478 16.3846C73.5386 17.9664 72.9082 20.1724 72.9082 22.7812H74.9082C74.9082 20.4712 75.4683 18.7352 76.3367 17.5993C77.1858 16.4885 78.376 15.8843 79.8442 15.875L79.8316 13.875ZM72.9082 22.7812C72.9082 25.4377 73.5234 27.6763 74.7252 29.2798C75.9492 30.9129 77.7276 31.8091 79.8316 31.8222L79.8441 29.8223C78.3544 29.813 77.168 29.2043 76.3256 28.0803C75.461 26.9268 74.9082 25.1561 74.9082 22.7812H72.9082ZM79.8467 31.8222C81.3116 31.8093 82.6479 31.372 83.7018 30.5053C84.7572 29.6373 85.4636 28.3929 85.7605 26.8823L83.7981 26.4966C83.5784 27.614 83.0831 28.4247 82.4315 28.9605C81.7784 29.4976 80.9023 29.8128 79.829 29.8223L79.8467 31.8222ZM84.7793 27.6895H90.2598V25.6895H84.7793V27.6895ZM89.2632 26.6068C89.0697 28.9391 88.0949 30.8912 86.5106 32.2651C84.9234 33.6415 82.6578 34.4941 79.793 34.4941V36.4941C83.06 36.4941 85.8144 35.5162 87.8209 33.7761C89.8303 32.0336 91.0231 29.5833 91.2563 26.7721L89.2632 26.6068ZM100.322 35V36H101.322V35H100.322ZM94.5723 35H93.5723V36H94.5723V35ZM94.5723 2.47656V1.47656H93.5723V2.47656H94.5723ZM100.188 2.47656H101.188V1.47656H100.188V2.47656ZM100.188 14.7402H99.1875V15.7402H100.188V14.7402ZM100.502 14.7402V15.7402H101.18L101.431 15.1103L100.502 14.7402ZM116.135 35V36H117.135V35H116.135ZM110.43 35H109.43V36H110.43V35ZM110.43 20.3555L111.43 20.3555L111.43 20.3487L110.43 20.3555ZM105.623 15.1445L105.616 16.1445L105.623 16.1446L105.631 16.1445L105.623 15.1445ZM99.3223 20.7148V35H101.322V20.7148H99.3223ZM100.322 34H94.5723V36H100.322V34ZM95.5723 35V2.47656H93.5723V35H95.5723ZM94.5723 3.47656H100.188V1.47656H94.5723V3.47656ZM99.1875 2.47656V14.7402H101.188V2.47656H99.1875ZM100.188 15.7402H100.502V13.7402H100.188V15.7402ZM101.431 15.1103C101.913 13.9011 102.657 12.965 103.662 12.3237C104.672 11.6794 106.009 11.293 107.734 11.293V9.29297C105.709 9.29297 103.98 9.7488 102.587 10.6375C101.189 11.5292 100.192 12.8166 99.573 14.3701L101.431 15.1103ZM107.734 11.293C110.039 11.293 111.857 12.0352 113.103 13.3547C114.354 14.68 115.135 16.7014 115.135 19.457H117.135C117.135 16.3279 116.242 13.7672 114.557 11.9817C112.866 10.1904 110.483 9.29297 107.734 9.29297V11.293ZM115.135 19.457V35H117.135V19.457H115.135ZM116.135 34H110.43V36H116.135V34ZM111.43 35V20.3555H109.43V35H111.43ZM111.43 20.3487C111.417 18.5183 110.921 16.9412 109.881 15.8162C108.829 14.6785 107.341 14.1317 105.616 14.1446L105.631 16.1445C106.915 16.1349 107.819 16.5315 108.412 17.1738C109.018 17.8289 109.42 18.8684 109.43 20.3622L111.43 20.3487ZM105.63 14.1446C103.855 14.1317 102.255 14.7146 101.098 15.8886C99.9416 17.0623 99.3223 18.731 99.3223 20.7148H101.322C101.322 19.1499 101.803 18.0222 102.523 17.2923C103.241 16.5627 104.292 16.1349 105.616 16.1445L105.63 14.1446ZM121.57 35H120.57V36H121.57V35ZM121.57 10.6074V9.60742H120.57V10.6074H121.57ZM127.32 10.6074H128.32V9.60742H127.32V10.6074ZM127.32 35V36H128.32V35H127.32ZM124.49 7.14844L124.478 8.14836L124.49 8.14851L124.503 8.14836L124.49 7.14844ZM122.57 35V10.6074H120.57V35H122.57ZM121.57 11.6074H127.32V9.60742H121.57V11.6074ZM126.32 10.6074V35H128.32V10.6074H126.32ZM127.32 34H121.57V36H127.32V34ZM122.166 4.00391C122.166 2.91604 123.154 1.9043 124.49 1.9043V-0.0957031C122.188 -0.0957031 120.166 1.67771 120.166 4.00391H122.166ZM124.49 1.9043C125.827 1.9043 126.814 2.91604 126.814 4.00391H128.814C128.814 1.67771 126.793 -0.0957031 124.49 -0.0957031V1.9043ZM126.814 4.00391C126.814 5.11729 125.821 6.13193 124.478 6.14851L124.503 8.14836C126.798 8.12002 128.814 6.3495 128.814 4.00391H126.814ZM124.503 6.14851C123.159 6.13193 122.166 5.11729 122.166 4.00391H120.166C120.166 6.3495 122.182 8.12002 124.478 8.14836L124.503 6.14851ZM138.551 35V36H139.551V35H138.551ZM132.801 35H131.801V36H132.801V35ZM132.801 10.6074V9.60742H131.801V10.6074H132.801ZM138.281 10.6074H139.281V9.60742H138.281V10.6074ZM138.281 14.7402H137.281V15.7402H138.281V14.7402ZM138.596 14.7402V15.7402H139.27L139.523 15.1156L138.596 14.7402ZM154.184 19.457L153.184 19.4532V19.457H154.184ZM154.184 35V36H155.184V35H154.184ZM148.479 35H147.479V36H148.479V35ZM143.717 15.1445L143.709 16.1445L143.717 16.1446L143.724 16.1445L143.717 15.1445ZM137.551 20.7148V35H139.551V20.7148H137.551ZM138.551 34H132.801V36H138.551V34ZM133.801 35V10.6074H131.801V35H133.801ZM132.801 11.6074H138.281V9.60742H132.801V11.6074ZM137.281 10.6074V14.7402H139.281V10.6074H137.281ZM138.281 15.7402H138.596V13.7402H138.281V15.7402ZM139.523 15.1156C140.454 12.8151 142.552 11.293 145.828 11.293V9.29297C141.827 9.29297 138.938 11.2299 137.669 14.3649L139.523 15.1156ZM145.828 11.293C148.129 11.293 149.941 12.0438 151.179 13.3681C152.424 14.6989 153.194 16.7208 153.184 19.4532L155.184 19.4609C155.196 16.3534 154.315 13.7933 152.64 12.002C150.958 10.2042 148.581 9.29297 145.828 9.29297V11.293ZM153.184 19.457V35H155.184V19.457H153.184ZM154.184 34H148.479V36H154.184V34ZM149.479 35V20.3555H147.479V35H149.479ZM149.479 20.3555C149.479 18.543 148.987 16.9674 147.957 15.8379C146.914 14.6952 145.432 14.1316 143.709 14.1446L143.724 16.1445C144.989 16.135 145.888 16.5373 146.479 17.1858C147.083 17.8475 147.479 18.8886 147.479 20.3555H149.479ZM143.724 14.1446C141.975 14.1316 140.405 14.7194 139.275 15.8984C138.148 17.0739 137.551 18.7397 137.551 20.7148H139.551C139.551 19.1412 140.021 18.0105 140.719 17.2825C141.413 16.5579 142.426 16.135 143.709 16.1445L143.724 14.1446ZM181.316 24.3984V25.3984H182.316V24.3984H181.316ZM164.291 24.3984V23.3984H163.269L163.291 24.4201L164.291 24.3984ZM170.535 31.002L170.544 30.002L170.537 30.0019L170.529 30.002L170.535 31.002ZM175.477 28.4863V27.4863H174.863L174.585 28.0336L175.477 28.4863ZM181.092 28.4863L182.063 28.724L182.366 27.4863H181.092V28.4863ZM164.313 20.4902L163.316 20.4252L163.246 21.4902H164.313V20.4902ZM175.836 20.4902V21.4902H176.843L176.836 20.4835L175.836 20.4902ZM170.49 34.4941C167.049 34.4941 164.364 33.3533 162.535 31.4066C160.699 29.4526 159.631 26.5844 159.631 22.9609H157.631C157.631 26.9742 158.82 30.3726 161.077 32.776C163.342 35.1868 166.587 36.4941 170.49 36.4941V34.4941ZM159.631 22.9609C159.631 19.3879 160.714 16.4756 162.533 14.4685C164.344 12.4707 166.953 11.293 170.176 11.293V9.29297C166.435 9.29297 163.272 10.6758 161.051 13.1252C158.839 15.5655 157.631 18.9871 157.631 22.9609H159.631ZM170.176 11.293C172.957 11.293 175.47 12.1637 177.285 13.9506C179.092 15.7307 180.316 18.5287 180.316 22.6016H182.316C182.316 18.1168 180.957 14.7605 178.688 12.5257C176.426 10.2977 173.369 9.29297 170.176 9.29297V11.293ZM180.316 22.6016V24.3984H182.316V22.6016H180.316ZM181.316 23.3984H164.291V25.3984H181.316V23.3984ZM163.291 24.4201C163.34 26.6874 164.037 28.6042 165.335 29.9586C166.639 31.3201 168.456 32.0146 170.541 32.0019L170.529 30.002C168.908 30.0118 167.648 29.4821 166.779 28.5751C165.903 27.661 165.332 26.2647 165.291 24.3768L163.291 24.4201ZM170.526 32.0019C173.342 32.0271 175.422 30.8035 176.368 28.939L174.585 28.0336C174.049 29.0891 172.76 30.0218 170.544 30.002L170.526 32.0019ZM175.477 29.4863H181.092V27.4863H175.477V29.4863ZM180.12 28.2487C179.224 31.9112 175.817 34.4941 170.49 34.4941V36.4941C176.484 36.4941 180.893 33.5068 182.063 28.724L180.12 28.2487ZM164.313 21.4902H175.836V19.4902H164.313V21.4902ZM176.836 20.4835C176.823 18.5958 176.176 16.9043 175.003 15.6776C173.826 14.4463 172.172 13.7402 170.266 13.7402V15.7402C171.661 15.7402 172.781 16.2471 173.558 17.0597C174.339 17.877 174.826 19.0604 174.836 20.497L176.836 20.4835ZM170.266 13.7402C166.229 13.7402 163.547 16.8753 163.316 20.4252L165.311 20.5553C165.484 17.9059 167.429 15.7402 170.266 15.7402V13.7402ZM196.41 26.1953V25.1953H195.385L195.41 26.2199L196.41 26.1953ZM202.295 26.1953L203.293 26.1351L203.236 25.1953H202.295V26.1953ZM208.449 30.5078L208.456 29.5077L208.443 29.5078L208.449 30.5078ZM207.865 20.625L207.871 19.625H207.865V20.625ZM204.945 20.625H203.945V21.625H204.945V20.625ZM204.945 16.1328V15.1328H203.945V16.1328H204.945ZM213.705 11.3711L212.705 11.3629L212.705 11.371L212.705 11.379L213.705 11.3711ZM202.699 11.2363V12.2363H203.659L203.698 11.2773L202.699 11.2363ZM197.084 11.2363L196.084 11.2116L196.059 12.2363H197.084V11.2363ZM219.365 11.0566L218.365 11.0476L218.365 11.0583L218.365 11.069L219.365 11.0566ZM213.436 18.0645L213.231 17.0856L212.436 17.2517V18.0645H213.436ZM213.436 18.334H212.436V19.2104L213.304 19.3253L213.436 18.334ZM220.578 25.9707L219.578 25.9597L219.578 25.9693L219.578 25.9789L220.578 25.9707ZM208.449 34.4492C201.816 34.4492 197.526 30.9005 197.41 26.1707L195.41 26.2199C195.564 32.451 201.201 36.4492 208.449 36.4492V34.4492ZM196.41 27.1953H202.295V25.1953H196.41V27.1953ZM201.297 26.2555C201.501 29.641 204.825 31.5318 208.456 31.5078L208.443 29.5078C205.29 29.5287 203.403 27.9606 203.293 26.1351L201.297 26.2555ZM208.443 31.5078C210.407 31.5201 212.178 30.9837 213.481 29.9649C214.801 28.9333 215.604 27.4308 215.604 25.6562H213.604C213.604 26.7792 213.114 27.7137 212.25 28.3891C211.369 29.0773 210.063 29.5179 208.456 29.5078L208.443 31.5078ZM215.604 25.6562C215.604 23.8798 214.826 22.3371 213.428 21.2615C212.052 20.2029 210.135 19.6371 207.871 19.625L207.86 21.625C209.818 21.6354 211.27 22.1252 212.208 22.8466C213.124 23.551 213.604 24.5127 213.604 25.6562H215.604ZM207.865 19.625H204.945V21.625H207.865V19.625ZM205.945 20.625V16.1328H203.945V20.625H205.945ZM204.945 17.1328H207.865V15.1328H204.945V17.1328ZM207.865 17.1328C209.773 17.1328 211.477 16.6 212.721 15.5895C213.982 14.5656 214.719 13.089 214.705 11.3632L212.705 11.379C212.714 12.4832 212.26 13.3876 211.46 14.0369C210.644 14.6998 209.416 15.1328 207.865 15.1328V17.1328ZM214.705 11.3793C214.718 9.73948 214.099 8.31034 212.957 7.30279C211.828 6.30599 210.267 5.78906 208.494 5.78906V7.78906C209.888 7.78906 210.944 8.19303 211.634 8.80219C212.312 9.4006 212.714 10.2625 212.705 11.3629L214.705 11.3793ZM208.494 5.78906C205.167 5.78906 201.844 7.68993 201.7 11.1954L203.698 11.2773C203.779 9.30226 205.712 7.78906 208.494 7.78906V5.78906ZM202.699 10.2363H197.084V12.2363H202.699V10.2363ZM198.084 11.261C198.2 6.52993 202.52 3.02734 208.539 3.02734V1.02734C201.845 1.02734 196.237 5.02671 196.084 11.2116L198.084 11.261ZM208.539 3.02734C214.736 3.02734 218.404 6.75575 218.365 11.0476L220.365 11.0656C220.416 5.38488 215.549 1.02734 208.539 1.02734V3.02734ZM218.365 11.069C218.404 14.1653 216.378 16.4284 213.231 17.0856L213.64 19.0433C217.591 18.2181 220.417 15.2253 220.365 11.0443L218.365 11.069ZM212.436 18.0645V18.334H214.436V18.0645H212.436ZM213.304 19.3253C215.411 19.6042 216.976 20.4064 218.007 21.5244C219.032 22.6375 219.598 24.1392 219.578 25.9597L221.578 25.9817C221.603 23.7143 220.889 21.7009 219.477 20.1692C218.071 18.6424 216.042 17.6702 213.567 17.3426L213.304 19.3253ZM219.578 25.9789C219.617 30.7005 215.18 34.4492 208.449 34.4492V36.4492C215.779 36.4492 221.629 32.2468 221.578 25.9625L219.578 25.9789ZM237.873 35.4492L237.866 36.4492L237.867 36.4492L237.873 35.4492ZM225.205 19.6367L226.205 19.6386V19.6367H225.205ZM249.553 11.2363V12.2363H250.703L250.543 11.0973L249.553 11.2363ZM243.758 11.2363L242.784 11.4644L242.965 12.2363H243.758V11.2363ZM238.232 7.10352L238.228 8.10358L238.24 8.10349L238.232 7.10352ZM230.865 18.1094L229.865 18.1061L229.862 19.1094H230.865V18.1094ZM231.18 18.1094V19.1094H231.75L232.04 18.6188L231.18 18.1094ZM239.535 13.6621L239.529 14.6621L239.539 14.6621L239.535 13.6621ZM249.867 24.2188L248.867 24.2151L248.867 24.2222L249.867 24.2188ZM231.494 24.3984L230.494 24.3852L230.494 24.3984L230.494 24.4117L231.494 24.3984ZM237.873 30.7324L237.867 31.7325L237.879 31.7324L237.873 30.7324ZM244.207 24.3535L245.207 24.3598L245.207 24.347L244.207 24.3535ZM237.88 34.4492C234.892 34.4281 232.005 33.5337 229.865 31.3276C227.725 29.1222 226.194 25.4648 226.205 19.6386L224.205 19.6348C224.194 25.8028 225.818 30.0291 228.429 32.7203C231.039 35.4106 234.498 36.4254 237.866 36.4492L237.88 34.4492ZM226.205 19.6367C226.205 14.2137 227.439 10.0475 229.529 7.26284C231.593 4.51101 234.549 3.02734 238.232 3.02734V1.02734C233.942 1.02734 230.384 2.78928 227.929 6.0626C225.498 9.30312 224.205 13.9416 224.205 19.6367H226.205ZM238.232 3.02734C244.03 3.02734 247.895 6.61968 248.562 11.3754L250.543 11.0973C249.728 5.29634 244.968 1.02734 238.232 1.02734V3.02734ZM249.553 10.2363H243.758V12.2363H249.553V10.2363ZM244.731 11.0083C244.393 9.56125 243.637 8.31411 242.499 7.43517C241.361 6.55615 239.9 6.09085 238.225 6.10354L238.24 8.10349C239.53 8.09372 240.539 8.44825 241.277 9.01795C242.014 9.58775 242.539 10.4182 242.784 11.4644L244.731 11.0083ZM238.237 6.10353C235.531 6.09064 233.383 7.30741 231.953 9.47921C230.557 11.6007 229.877 14.5758 229.865 18.1061L231.865 18.1127C231.876 14.7923 232.522 12.2533 233.624 10.5789C234.693 8.9548 236.217 8.09393 238.228 8.1035L238.237 6.10353ZM230.865 19.1094H231.18V17.1094H230.865V19.1094ZM232.04 18.6188C233.501 16.1506 236.273 14.6416 239.529 14.6621L239.541 12.6621C235.655 12.6377 232.182 14.4529 230.319 17.6L232.04 18.6188ZM239.539 14.6621C244.815 14.6418 248.888 18.6073 248.867 24.2151L250.867 24.2224C250.892 17.5216 245.935 12.6375 239.531 12.6621L239.539 14.6621ZM248.867 24.2222C248.878 27.1981 247.776 29.7486 245.884 31.5528C243.99 33.3585 241.245 34.4703 237.879 34.4492L237.867 36.4492C241.689 36.4731 244.952 35.204 247.264 33.0004C249.577 30.7953 250.879 27.7082 250.867 24.2153L248.867 24.2222ZM230.494 24.4117C230.546 28.3181 233.609 31.7064 237.867 31.7324L237.879 29.7324C234.77 29.7135 232.532 27.2619 232.494 24.3852L230.494 24.4117ZM237.879 31.7324C242.057 31.7065 245.181 28.4645 245.207 24.3598L243.207 24.3472C243.188 27.3851 240.922 29.7135 237.867 29.7324L237.879 31.7324ZM245.207 24.347C245.181 20.3635 242.154 17.1094 237.963 17.1094V19.1094C241.005 19.1094 243.188 21.4256 243.207 24.36L245.207 24.347ZM237.963 17.1094C233.747 17.1094 230.546 20.4544 230.494 24.3852L232.494 24.4117C232.532 21.5593 234.857 19.1094 237.963 19.1094V17.1094ZM254.898 26.1953V25.1953H253.864L253.899 26.2288L254.898 26.1953ZM260.604 26.1953L261.601 26.1271L261.537 25.1953H260.604V26.1953ZM266.354 30.7324L266.346 31.7325L266.36 31.7324L266.354 30.7324ZM272.598 24.4883L271.598 24.4823L271.598 24.4945L272.598 24.4883ZM266.174 18.1094L266.165 19.1093L266.168 19.1094L266.174 18.1094ZM260.783 20.8945V21.8945H261.385L261.667 21.3624L260.783 20.8945ZM255.348 20.8945L254.353 20.7878L254.235 21.8945H255.348V20.8945ZM257.324 2.47656V1.47656H256.426L256.33 2.36986L257.324 2.47656ZM276.551 2.47656H277.551V1.47656H276.551V2.47656ZM276.551 7.37305V8.37305H277.551V7.37305H276.551ZM262.131 7.37305V6.37305H261.239L261.137 7.25921L262.131 7.37305ZM261.143 15.998L260.149 15.8842L260.021 16.998H261.143V15.998ZM261.457 15.998V16.998H261.906L262.204 16.6624L261.457 15.998ZM267.746 13.5273L267.75 12.5273L267.738 12.5274L267.746 13.5273ZM278.258 24.3086L277.258 24.305L277.258 24.3121L278.258 24.3086ZM266.354 34.4492C260.23 34.4492 256.054 30.8349 255.898 26.1619L253.899 26.2288C254.102 32.292 259.494 36.4492 266.354 36.4492V34.4492ZM254.898 27.1953H260.604V25.1953H254.898V27.1953ZM259.606 26.2635C259.832 29.5731 262.923 31.7074 266.346 31.7324L266.361 29.7324C263.629 29.7125 261.734 28.0734 261.601 26.1271L259.606 26.2635ZM266.36 31.7324C270.539 31.7066 273.624 28.6398 273.598 24.482L271.598 24.4945C271.617 27.5243 269.445 29.7133 266.347 29.7324L266.36 31.7324ZM273.598 24.4943C273.624 20.1906 270.46 17.135 266.18 17.1094L266.168 19.1094C269.39 19.1286 271.617 21.3289 271.598 24.4823L273.598 24.4943ZM266.183 17.1094C263.38 17.0846 261.131 18.1007 259.899 20.4266L261.667 21.3624C262.457 19.87 263.891 19.0892 266.165 19.1093L266.183 17.1094ZM260.783 19.8945H255.348V21.8945H260.783V19.8945ZM256.342 21.0012L258.319 2.58327L256.33 2.36986L254.353 20.7878L256.342 21.0012ZM257.324 3.47656H276.551V1.47656H257.324V3.47656ZM275.551 2.47656V7.37305H277.551V2.47656H275.551ZM276.551 6.37305H262.131V8.37305H276.551V6.37305ZM261.137 7.25921L260.149 15.8842L262.136 16.1119L263.124 7.48689L261.137 7.25921ZM261.143 16.998H261.457V14.998H261.143V16.998ZM262.204 16.6624C263.236 15.5016 265.301 14.5479 267.754 14.5273L267.738 12.5274C264.845 12.5517 262.193 13.6644 260.71 15.3337L262.204 16.6624ZM267.742 14.5273C273.222 14.5477 277.278 18.5807 277.258 24.305L279.258 24.3122C279.282 17.5033 274.354 12.5519 267.75 12.5274L267.742 14.5273ZM277.258 24.3121C277.268 27.2941 276.154 29.8097 274.266 31.5844C272.373 33.3631 269.646 34.4492 266.354 34.4492V36.4492C270.091 36.4492 273.328 35.2106 275.635 33.0418C277.947 30.8691 279.27 27.8143 279.258 24.3051L277.258 24.3121Z" fill="black" mask="url(#path-1-outside-1_46_459)"/>
</g>
<defs>
<filter id="filter0_d_46_459" x="0.00976562" y="0.904297" width="282.271" height="42.5898" filterUnits="userSpaceOnUse" color-interpolation-filters="sRGB">
<feFlood flood-opacity="0" result="BackgroundImageFix"/>
<feColorMatrix in="SourceAlpha" type="matrix" values="0 0 0 0 0 0 0 0 0 0 0 0 0 0 0 0 0 0 127 0" result="hardAlpha"/>
<feOffset dy="4"/>
<feGaussianBlur stdDeviation="2"/>
<feComposite in2="hardAlpha" operator="out"/>
<feColorMatrix type="matrix" values="0 0 0 0 0 0 0 0 0 0 0 0 0 0 0 0 0 0 0.25 0"/>
<feBlend mode="normal" in2="BackgroundImageFix" result="effect1_dropShadow_46_459"/>
<feBlend mode="normal" in="SourceGraphic" in2="effect1_dropShadow_46_459" result="shape"/>
</filter>
</defs>
</svg>
